PathFileType	4	(X/Y/Z)	Patient4_TMGait_0pt7_02_right_30.trc.trc
DataRate	CameraRate	NumFrames	NumMarkers	Units	OrigDataRate	OrigDataStartFrame	OrigNumFrames
86.419753086420	86.419753086420	4	33	mm	86.419753086420	89	       141
Frame#	Time	Sacral			L.Shoulder			Chest			R.Shoulder			Neck			R.ASIS			L.ASIS			R.Thigh.Superior			R.Thigh.Lateral			R.Thigh.Inferior			R.Patella			L.Thigh.Superior			L.Thigh.Lateral			L.Thigh.Inferior			L.Patella			L.Shank.Superior			L.Shank.Lateral			L.Shank.Inferior			R.Shank.Superior			R.Shank.Lateral			R.Shank.Inferior			R.Heel			R.Midfoot.Superior			R.Midfoot.Lateral			R.Toe			L.Heel			L.Midfoot.Lateral			L.Midfoot.Superior			L.Toe			L.Elbow			L.Wrist			R.Elbow			R.Wrist			
		X1	Y1	Z1	X2	Y2	Z2	X3	Y3	Z3	X4	Y4	Z4	X5	Y5	Z5	X6	Y6	Z6	X7	Y7	Z7	X8	Y8	Z8	X9	Y9	Z9	X10	Y10	Z10	X11	Y11	Z11	X12	Y12	Z12	X13	Y13	Z13	X14	Y14	Z14	X15	Y15	Z15	X16	Y16	Z16	X17	Y17	Z17	X18	Y18	Z18	X19	Y19	Z19	X20	Y20	Z20	X21	Y21	Z21	X22	Y22	Z22	X23	Y23	Z23	X24	Y24	Z24	X25	Y25	Z25	X26	Y26	Z26	X27	Y27	Z27	X28	Y28	Z28	X29	Y29	Z29	X30	Y30	Z30	X31	Y31	Z31	X32	Y32	Z32	X33	Y33	Z33	

89	34.698285714286	815.223453385623	1005.074129946381	480.473504823938	990.940116822215	1419.188345669980	283.524742426037	1104.642829237908	1350.087825146030	438.139039964186	1038.966989497150	1435.182195065485	613.805868552379	1010.131457504451	1485.251117847391	435.813537865206	1037.020353459269	932.662984234375	597.013328730196	1028.436533451927	949.589874383980	323.604500667576	1073.571547507182	728.499280163988	573.761455624088	990.705727466723	618.939351285080	634.896691452600	1071.025345297003	560.037484659904	559.769054436096	1058.859570800427	449.366841483763	577.148871741560	1100.618075106906	761.980095577839	354.639671930291	1034.220619531979	636.689619973826	287.586813130474	1129.886622470382	571.745397151012	352.534307194625	1141.338417441433	501.495241007412	359.351229526510	1120.035312381072	426.479390003034	348.029231962427	1041.557954670957	306.481630276684	291.213136649277	1101.721978920320	198.417503448959	360.908964139824	978.120946535951	385.655782386046	580.267087998443	854.891267410709	348.722829999496	637.566102916829	837.999332217919	241.661062135100	584.715535789382	634.976164398126	178.120542160146	550.870295752077	802.828276076554	127.214630320284	597.214616987862	694.392822497659	123.804029016493	626.837053069263	869.514576364622	30.801927261015	625.249028672164	983.833183947959	37.954589257647	397.306438756257	1058.895189232315	35.771389393563	316.797117968580	1139.710517081623	98.768506328260	345.121437108890	1269.594975022620	50.052438907037	318.925377779405	860.170846178969	1087.269793744300	198.352421825198	827.326635710877	830.043178241258	213.471071586326	1159.886741334153	1124.170218833342	739.182127243757	1315.859375969859	1258.423592104689	601.124952388727	
90	34.709857142857	813.515110728832	1006.192884819347	478.388505886698	992.023402644927	1419.679996473470	281.217106187393	1104.420362870609	1350.618535061337	436.734536037878	1037.785849946127	1436.421226571609	611.785701319557	1010.101369970310	1486.028221845918	433.380841914041	1035.087823865152	933.305444785575	595.249325476635	1026.958053555711	950.951932636784	321.975069811609	1078.436345274368	732.780409841512	571.358316516846	1000.795690296082	620.656252349727	633.521360581244	1083.049206693052	564.172204613905	558.026984877673	1073.585672401487	451.986749687668	575.945152061266	1097.180659415177	761.055293640932	351.709406370709	1028.787104423808	636.947561199203	285.717153564785	1123.583049524793	570.976386147720	350.800557892017	1134.086893185544	500.869743115927	357.663893830179	1112.603355341183	426.129456967776	346.460095512919	1033.690919035563	306.140804622905	290.290403950615	1093.704962554268	198.244599253000	360.309263562462	991.068635657988	388.684276421929	578.906234589060	866.186854465044	355.929562015245	635.529261278762	846.353795703472	249.211908744737	583.400648309536	642.378025746203	195.756509536087	547.643444449041	806.197442595578	133.814310772370	596.184351554570	697.093305834352	137.452747080114	624.314737239329	865.653035371224	30.879974792924	625.297914809718	975.624565028663	37.877759597561	397.263504468297	1050.649727582415	35.635515116580	316.710394289601	1131.452879948267	98.675297374207	344.951439458204	1261.372899400997	50.029020209140	318.813384280019	868.879652629466	1084.363349064295	194.122412370956	846.354147880247	825.854827344067	208.376474418016	1148.860790792887	1122.067194078313	740.552369297618	1309.189083577550	1250.720381593811	601.923606158368	
91	34.721428571429	811.605139311489	1007.143345214499	476.418397965619	993.088523942908	1420.052971474553	279.109486619817	1104.099467446741	1350.940834830314	435.560356161944	1036.481627350417	1437.424338570460	609.997629236949	1010.046483145723	1486.675722518554	431.179709419419	1033.071223978120	933.885983988619	593.621128134344	1025.280494031749	952.236603902935	320.408533279186	1083.068019263069	737.463871134406	568.938500518941	1010.895605352456	622.986607320857	632.265649486329	1094.903507562981	569.066124793655	556.332764830125	1088.446288388273	455.533450806980	574.645220131575	1093.500428425479	760.199545323090	349.131963621174	1023.431626225267	637.290746744046	283.896441467016	1117.241543269039	570.273722811532	349.200393876964	1126.788008943811	500.267002160909	356.040968484490	1105.159038189177	425.799200677561	344.948964830423	1025.870037824616	305.820499475678	289.345790887525	1085.699342181796	198.080386826391	359.728136419678	1004.449073120829	392.356028792510	577.515584369005	878.181207898949	363.298742448483	633.493259917693	855.792455957329	256.965656734249	581.986353110685	651.413302246183	212.597582837063	544.409910237372	811.104549334750	140.759796107402	594.888607997132	701.643988472482	150.774293380414	621.677940004678	863.852722633417	31.751182857651	625.000403394520	967.415774574188	37.823236675270	397.204156714763	1042.407003962000	35.507689052874	316.619948825679	1123.215695191416	98.566762137935	344.786597324528	1253.159976048760	49.962603649497	318.712924968830	878.077700802677	1081.534345604180	189.852674016770	866.302357646513	822.103307719345	203.286296017782	1137.139593686982	1119.728272709934	741.852838130423	1302.770858673594	1241.623448537960	603.068079958808	
92	34.733000000000	809.534820463990	1007.941304026305	474.552362612218	994.077017773008	1420.327762483379	277.214750493512	1103.662924478766	1351.096145831760	434.608833808858	1035.056492882901	1438.208447175891	608.449516260808	1009.964293687293	1487.215202533241	429.226458674259	1031.023292333106	934.452379415442	592.096907347713	1023.448371640011	953.455378182299	318.878972557557	1087.386233530899	742.502031807458	566.497621878464	1020.828137305988	625.938488032152	631.103335692892	1106.412527084633	574.690969140389	554.688493609836	1103.249287957896	459.991859508784	573.292313677778	1089.684327500709	759.449759101639	346.867125630500	1018.174923564646	637.684661237304	282.152344067245	1110.944525022422	569.628016258521	347.696948328081	1119.539252041655	499.691731992140	354.503656393478	1097.788820112500	425.485019266837	343.518937876225	1018.148734019893	305.534641909617	288.416371667900	1077.743586537836	197.921743172521	359.179972374154	1018.088971772943	396.646826340172	576.144057213824	890.703015503387	370.681397256884	631.533433596431	866.227294782869	264.714300045680	580.540466964868	661.851145831167	228.044267507205	541.397503805460	817.666067311876	147.811601430041	593.360528122723	708.103414454240	163.225566333226	619.071317720774	864.579035866754	33.515278624631	624.223219502499	959.215078793192	37.788669547534	397.130728433950	1034.174496471991	35.395834146606	316.527616533836	1115.000287847415	98.455330944256	344.630975412954	1244.957437122725	49.879915276546	318.618333009496	887.796372909331	1078.829747758350	185.567974901353	887.110822464626	818.890784327830	198.260774822506	1124.783108943653	1117.217520956413	743.008428281206	1296.568195754812	1231.061886505545	604.594048225122	
